# xmcd CD database file
#
# Track frame offsets:
#	150
#	27705
#	51024
#	64856
#	85303
#	107130
#	139338
#	158224
#	173710
#	187403
#	206136
#	229053
#	245730
#
# Disc length: 3428 seconds
#
# Revision: 0
# Processed by: cddbd v1.4PL0 Copyright (c) Steve Scherf et al.
# Submitted via: CDex 1.50Beta7
#
DISCID=c60d620d
DTITLE=Fernando Noronha e Black Soul - Blues From Hell
DYEAR=2000
DGENRE=Blues
TTITLE0=Suggar Daddy
TTITLE1=I Wonder
TTITLE2=Moondog Boogie
TTITLE3=Clap Your Hands
TTITLE4=Pay Back
TTITLE5=Ain't That A Shame
TTITLE6=Blues From Hell
TTITLE7=Voodoo Girl
TTITLE8=Ride With Me
TTITLE9=Blues Been Good To Me
TTITLE10=Crazy Love
TTITLE11=Fat Cherry Lips
TTITLE12=Acid Trip 2000
EXTD=YEAR: 2000
EXTT0=
EXTT1=
EXTT2=
EXTT3=
EXTT4=
EXTT5=
EXTT6=
EXTT7=
EXTT8=
EXTT9=
EXTT10=
EXTT11=
EXTT12=
PLAYORDER=
